<mxfile host="app.diagrams.net" modified="2023-04-05T08:21:49.936Z" agent="Mozilla/5.0 (Windows NT 10.0; Win64; x64) AppleWebKit/537.36 (KHTML, like Gecko) Chrome/111.0.0.0 Safari/537.36" etag="RbQLkXhm5EpHfJh2A-Ny" version="21.1.2" type="device">
  <diagram name="Page-1" id="03018318-947c-dd8e-b7a3-06fadd420f32">
    <mxGraphModel dx="5420" dy="3157" grid="1" gridSize="10" guides="1" tooltips="1" connect="1" arrows="1" fold="1" page="1" pageScale="1" pageWidth="1920" pageHeight="1200" background="none" math="0" shadow="0">
      <root>
        <mxCell id="0" />
        <mxCell id="1" parent="0" />
        <mxCell id="IyQjWxYwGwcPTdUjTPlc-4" value="" style="strokeWidth=3;shadow=0;dashed=0;align=center;html=1;shape=mxgraph.mockup.containers.browserWindow;rSize=0;strokeColor=default;strokeColor2=#008cff;strokeColor3=#c4c4c4;mainText=,;recursiveResize=0;fillColor=default;rounded=0;fontSize=31;" vertex="1" parent="1">
          <mxGeometry width="1920" height="110" as="geometry" />
        </mxCell>
        <mxCell id="IyQjWxYwGwcPTdUjTPlc-5" value="Page 1" style="strokeWidth=1;shadow=0;dashed=0;align=center;html=1;shape=mxgraph.mockup.containers.anchor;fontSize=31;fontColor=#666666;align=left;whiteSpace=wrap;" vertex="1" parent="IyQjWxYwGwcPTdUjTPlc-4">
          <mxGeometry x="60" y="12" width="110" height="26" as="geometry" />
        </mxCell>
        <mxCell id="IyQjWxYwGwcPTdUjTPlc-6" value="https://www.draw.io" style="strokeWidth=1;shadow=0;dashed=0;align=center;html=1;shape=mxgraph.mockup.containers.anchor;rSize=0;fontSize=31;fontColor=#666666;align=left;" vertex="1" parent="IyQjWxYwGwcPTdUjTPlc-4">
          <mxGeometry x="130" y="60" width="250" height="26" as="geometry" />
        </mxCell>
        <mxCell id="IyQjWxYwGwcPTdUjTPlc-7" value="" style="rounded=0;whiteSpace=wrap;html=1;fillColor=#f5f5f5;strokeWidth=3;align=left;strokeColor=#666666;fontColor=#333333;fontSize=31;" vertex="1" parent="1">
          <mxGeometry y="110" width="1920" height="80" as="geometry" />
        </mxCell>
        <mxCell id="IyQjWxYwGwcPTdUjTPlc-8" value="&lt;p style=&quot;line-height: 120%; font-size: 31px;&quot;&gt;&lt;br style=&quot;font-size: 31px;&quot;&gt;&lt;/p&gt;" style="rounded=0;whiteSpace=wrap;html=1;fillColor=none;strokeWidth=3;align=left;fontSize=31;" vertex="1" parent="1">
          <mxGeometry y="190" width="1920" height="2440" as="geometry" />
        </mxCell>
        <mxCell id="IyQjWxYwGwcPTdUjTPlc-17" value="" style="rounded=0;whiteSpace=wrap;html=1;strokeWidth=3;fontFamily=Helvetica;fontSize=31;glass=0;shadow=0;fillColor=#f8cecc;strokeColor=#b85450;" vertex="1" parent="1">
          <mxGeometry x="10" y="200" width="1900" height="430" as="geometry" />
        </mxCell>
        <mxCell id="IyQjWxYwGwcPTdUjTPlc-18" value="" style="rounded=0;whiteSpace=wrap;html=1;strokeWidth=3;fontFamily=Helvetica;fontSize=31;glass=0;shadow=0;fillColor=#f5f5f5;fontColor=#333333;strokeColor=#666666;" vertex="1" parent="1">
          <mxGeometry x="10" y="640" width="1900" height="1950" as="geometry" />
        </mxCell>
        <mxCell id="IyQjWxYwGwcPTdUjTPlc-29" value="h1" style="rounded=0;whiteSpace=wrap;html=1;strokeWidth=3;fontFamily=Helvetica;fontSize=31;glass=0;shadow=0;" vertex="1" parent="1">
          <mxGeometry x="509.13" y="1038" width="950" height="80" as="geometry" />
        </mxCell>
        <mxCell id="IyQjWxYwGwcPTdUjTPlc-88" value="" style="rounded=0;whiteSpace=wrap;html=1;strokeWidth=3;fontFamily=Helvetica;fontSize=31;glass=0;shadow=0;fillColor=#f5f5f5;fontColor=#333333;strokeColor=#666666;" vertex="1" parent="1">
          <mxGeometry x="420" y="120" width="1110" height="60" as="geometry" />
        </mxCell>
        <mxCell id="IyQjWxYwGwcPTdUjTPlc-102" value="&lt;font style=&quot;font-size: 31px;&quot;&gt;a&lt;/font&gt;" style="rounded=0;whiteSpace=wrap;html=1;strokeWidth=3;fontFamily=Helvetica;fontSize=31;glass=0;shadow=0;fillColor=#fff2cc;strokeColor=#d6b656;" vertex="1" parent="1">
          <mxGeometry x="445" y="125" width="100" height="50" as="geometry" />
        </mxCell>
        <mxCell id="IyQjWxYwGwcPTdUjTPlc-104" value="a" style="rounded=0;whiteSpace=wrap;html=1;strokeWidth=3;fontFamily=Helvetica;fontSize=31;glass=0;shadow=0;fillColor=#fff2cc;strokeColor=#d6b656;" vertex="1" parent="1">
          <mxGeometry x="610" y="125" width="100" height="50" as="geometry" />
        </mxCell>
        <mxCell id="IyQjWxYwGwcPTdUjTPlc-105" value="a" style="rounded=0;whiteSpace=wrap;html=1;strokeWidth=3;fontFamily=Helvetica;fontSize=31;glass=0;shadow=0;fillColor=#fff2cc;strokeColor=#d6b656;" vertex="1" parent="1">
          <mxGeometry x="760" y="125" width="100" height="50" as="geometry" />
        </mxCell>
        <mxCell id="IyQjWxYwGwcPTdUjTPlc-106" value="a" style="rounded=0;whiteSpace=wrap;html=1;strokeWidth=3;fontFamily=Helvetica;fontSize=31;glass=0;shadow=0;fillColor=#fff2cc;strokeColor=#d6b656;" vertex="1" parent="1">
          <mxGeometry x="910.5" y="125" width="100" height="50" as="geometry" />
        </mxCell>
        <mxCell id="IyQjWxYwGwcPTdUjTPlc-107" value="a" style="rounded=0;whiteSpace=wrap;html=1;strokeWidth=3;fontFamily=Helvetica;fontSize=31;glass=0;shadow=0;fillColor=#fff2cc;strokeColor=#d6b656;" vertex="1" parent="1">
          <mxGeometry x="1080" y="125" width="100" height="50" as="geometry" />
        </mxCell>
        <mxCell id="IyQjWxYwGwcPTdUjTPlc-108" value="a" style="rounded=0;whiteSpace=wrap;html=1;strokeWidth=3;fontFamily=Helvetica;fontSize=31;glass=0;shadow=0;fillColor=#fff2cc;strokeColor=#d6b656;" vertex="1" parent="1">
          <mxGeometry x="1405" y="125" width="100" height="50" as="geometry" />
        </mxCell>
        <mxCell id="IyQjWxYwGwcPTdUjTPlc-109" value="a" style="rounded=0;whiteSpace=wrap;html=1;strokeWidth=3;fontFamily=Helvetica;fontSize=31;glass=0;shadow=0;fillColor=#fff2cc;strokeColor=#d6b656;" vertex="1" parent="1">
          <mxGeometry x="1245" y="125" width="100" height="50" as="geometry" />
        </mxCell>
        <mxCell id="IyQjWxYwGwcPTdUjTPlc-111" value="" style="rounded=0;whiteSpace=wrap;html=1;strokeWidth=3;fontFamily=Helvetica;fontSize=31;glass=0;shadow=0;fillColor=#f5f5f5;fontColor=#333333;strokeColor=#666666;" vertex="1" parent="1">
          <mxGeometry x="1540" y="120" width="370" height="60" as="geometry" />
        </mxCell>
        <mxCell id="IyQjWxYwGwcPTdUjTPlc-139" value="&lt;p style=&quot;line-height: 0%; font-size: 31px;&quot;&gt;&lt;span style=&quot;font-size: 31px;&quot;&gt;div&lt;/span&gt;&lt;/p&gt;&lt;p style=&quot;line-height: 0%; font-size: 31px;&quot;&gt;&lt;span style=&quot;font-size: 31px;&quot;&gt;&lt;br style=&quot;font-size: 31px;&quot;&gt;&lt;/span&gt;&lt;/p&gt;&lt;p style=&quot;line-height: 0%; font-size: 31px;&quot;&gt;&lt;span style=&quot;font-size: 31px;&quot;&gt;&lt;br style=&quot;font-size: 31px;&quot;&gt;&lt;/span&gt;&lt;/p&gt;&lt;p style=&quot;line-height: 0%; font-size: 31px;&quot;&gt;&lt;span style=&quot;font-size: 31px;&quot;&gt;&lt;br style=&quot;font-size: 31px;&quot;&gt;&lt;/span&gt;&lt;/p&gt;&lt;p style=&quot;line-height: 0%; font-size: 31px;&quot;&gt;&lt;span style=&quot;font-size: 31px;&quot;&gt;&lt;br style=&quot;font-size: 31px;&quot;&gt;&lt;/span&gt;&lt;/p&gt;&lt;p style=&quot;line-height: 0%; font-size: 31px;&quot;&gt;&lt;span style=&quot;font-size: 31px;&quot;&gt;&lt;br style=&quot;font-size: 31px;&quot;&gt;&lt;/span&gt;&lt;/p&gt;" style="strokeWidth=5;shadow=0;dashed=0;align=center;html=1;shape=mxgraph.mockup.text.callout;linkText=;textSize=17;textColor=#666666;callDir=NW;callStyle=line;fontSize=31;fontColor=#333333;align=left;verticalAlign=top;strokeColor=#787878;rounded=0;fontFamily=Helvetica;fillColor=#f5f5f5;" vertex="1" parent="1">
          <mxGeometry x="-200" y="60" width="200" height="100" as="geometry" />
        </mxCell>
        <mxCell id="IyQjWxYwGwcPTdUjTPlc-149" value="logo" style="rounded=0;whiteSpace=wrap;html=1;strokeWidth=3;fontFamily=Helvetica;fontSize=31;glass=0;shadow=0;fillColor=#ffe6cc;strokeColor=#d79b00;" vertex="1" parent="1">
          <mxGeometry x="120" y="120" width="275" height="60" as="geometry" />
        </mxCell>
        <mxCell id="IyQjWxYwGwcPTdUjTPlc-195" value="btn" style="rounded=0;whiteSpace=wrap;html=1;strokeWidth=3;fontFamily=Helvetica;fontSize=31;glass=0;shadow=0;fillColor=#d5e8d4;strokeColor=#82b366;" vertex="1" parent="1">
          <mxGeometry x="1545.5" y="125" width="70" height="45" as="geometry" />
        </mxCell>
        <mxCell id="IyQjWxYwGwcPTdUjTPlc-196" value="btn" style="rounded=0;whiteSpace=wrap;html=1;strokeWidth=3;fontFamily=Helvetica;fontSize=31;glass=0;shadow=0;fillColor=#d5e8d4;strokeColor=#82b366;" vertex="1" parent="1">
          <mxGeometry x="1628" y="127.5" width="70" height="45" as="geometry" />
        </mxCell>
        <mxCell id="IyQjWxYwGwcPTdUjTPlc-197" value="btn" style="rounded=0;whiteSpace=wrap;html=1;strokeWidth=3;fontFamily=Helvetica;fontSize=31;glass=0;shadow=0;fillColor=#d5e8d4;strokeColor=#82b366;" vertex="1" parent="1">
          <mxGeometry x="1710" y="127.5" width="70" height="45" as="geometry" />
        </mxCell>
        <mxCell id="IyQjWxYwGwcPTdUjTPlc-198" value="a" style="rounded=0;whiteSpace=wrap;html=1;strokeWidth=3;fontFamily=Helvetica;fontSize=31;glass=0;shadow=0;fillColor=#fff2cc;strokeColor=#d6b656;" vertex="1" parent="1">
          <mxGeometry x="1790" y="125" width="100" height="50" as="geometry" />
        </mxCell>
        <mxCell id="IyQjWxYwGwcPTdUjTPlc-199" value="btn" style="rounded=0;whiteSpace=wrap;html=1;strokeWidth=3;fontFamily=Helvetica;fontSize=31;glass=0;shadow=0;fillColor=#d5e8d4;strokeColor=#82b366;" vertex="1" parent="1">
          <mxGeometry x="21" y="120" width="70" height="60" as="geometry" />
        </mxCell>
        <mxCell id="IyQjWxYwGwcPTdUjTPlc-214" value="" style="rounded=0;whiteSpace=wrap;html=1;strokeWidth=3;fontFamily=Helvetica;fontSize=31;glass=0;shadow=0;fillColor=#f5f5f5;strokeColor=#666666;fontColor=#333333;" vertex="1" parent="1">
          <mxGeometry x="20" y="660" width="1880" height="1910" as="geometry" />
        </mxCell>
        <mxCell id="IyQjWxYwGwcPTdUjTPlc-235" value="" style="rounded=0;whiteSpace=wrap;html=1;strokeWidth=3;fontFamily=Helvetica;fontSize=31;glass=0;shadow=0;fillColor=#f5f5f5;strokeColor=#666666;fontColor=#333333;" vertex="1" parent="1">
          <mxGeometry x="20" y="210" width="1880" height="120" as="geometry" />
        </mxCell>
        <mxCell id="IyQjWxYwGwcPTdUjTPlc-236" value="btn" style="rounded=0;whiteSpace=wrap;html=1;strokeWidth=3;fontFamily=Helvetica;fontSize=31;glass=0;shadow=0;fillColor=#d5e8d4;strokeColor=#82b366;" vertex="1" parent="1">
          <mxGeometry x="43.75" y="240" width="210" height="60" as="geometry" />
        </mxCell>
        <mxCell id="IyQjWxYwGwcPTdUjTPlc-237" value="btn" style="rounded=0;whiteSpace=wrap;html=1;strokeWidth=3;fontFamily=Helvetica;fontSize=31;glass=0;shadow=0;fillColor=#d5e8d4;strokeColor=#82b366;" vertex="1" parent="1">
          <mxGeometry x="266.25" y="240" width="210" height="60" as="geometry" />
        </mxCell>
        <mxCell id="IyQjWxYwGwcPTdUjTPlc-240" value="" style="rounded=0;whiteSpace=wrap;html=1;strokeWidth=3;fontFamily=Helvetica;fontSize=31;glass=0;shadow=0;fillColor=#f5f5f5;strokeColor=#666666;fontColor=#333333;" vertex="1" parent="1">
          <mxGeometry x="21" y="340" width="1880" height="120" as="geometry" />
        </mxCell>
        <mxCell id="IyQjWxYwGwcPTdUjTPlc-251" value="" style="rounded=0;whiteSpace=wrap;html=1;strokeWidth=3;fontFamily=Helvetica;fontSize=31;glass=0;shadow=0;fillColor=#f5f5f5;strokeColor=#666666;fontColor=#333333;" vertex="1" parent="1">
          <mxGeometry x="21" y="480" width="1880" height="120" as="geometry" />
        </mxCell>
        <mxCell id="IyQjWxYwGwcPTdUjTPlc-252" value="btn" style="rounded=0;whiteSpace=wrap;html=1;strokeWidth=3;fontFamily=Helvetica;fontSize=31;glass=0;shadow=0;fillColor=#d5e8d4;strokeColor=#82b366;" vertex="1" parent="1">
          <mxGeometry x="48.75" y="510" width="210" height="60" as="geometry" />
        </mxCell>
        <mxCell id="IyQjWxYwGwcPTdUjTPlc-253" value="btn" style="rounded=0;whiteSpace=wrap;html=1;strokeWidth=3;fontFamily=Helvetica;fontSize=31;glass=0;shadow=0;fillColor=#d5e8d4;strokeColor=#82b366;" vertex="1" parent="1">
          <mxGeometry x="271.25" y="510" width="210" height="60" as="geometry" />
        </mxCell>
        <mxCell id="IyQjWxYwGwcPTdUjTPlc-254" value="btn" style="rounded=0;whiteSpace=wrap;html=1;strokeWidth=3;fontFamily=Helvetica;fontSize=31;glass=0;shadow=0;fillColor=#d5e8d4;strokeColor=#82b366;" vertex="1" parent="1">
          <mxGeometry x="495" y="510" width="210" height="60" as="geometry" />
        </mxCell>
        <mxCell id="IyQjWxYwGwcPTdUjTPlc-255" value="btn" style="rounded=0;whiteSpace=wrap;html=1;strokeWidth=3;fontFamily=Helvetica;fontSize=31;glass=0;shadow=0;fillColor=#d5e8d4;strokeColor=#82b366;" vertex="1" parent="1">
          <mxGeometry x="717.5" y="510" width="210" height="60" as="geometry" />
        </mxCell>
        <mxCell id="IyQjWxYwGwcPTdUjTPlc-256" value="btn" style="rounded=0;whiteSpace=wrap;html=1;strokeWidth=3;fontFamily=Helvetica;fontSize=31;glass=0;shadow=0;fillColor=#d5e8d4;strokeColor=#82b366;" vertex="1" parent="1">
          <mxGeometry x="940.5" y="510" width="210" height="60" as="geometry" />
        </mxCell>
        <mxCell id="IyQjWxYwGwcPTdUjTPlc-257" value="btn" style="rounded=0;whiteSpace=wrap;html=1;strokeWidth=3;fontFamily=Helvetica;fontSize=31;glass=0;shadow=0;fillColor=#d5e8d4;strokeColor=#82b366;" vertex="1" parent="1">
          <mxGeometry x="1163" y="510" width="210" height="60" as="geometry" />
        </mxCell>
        <mxCell id="IyQjWxYwGwcPTdUjTPlc-258" value="btn" style="rounded=0;whiteSpace=wrap;html=1;strokeWidth=3;fontFamily=Helvetica;fontSize=31;glass=0;shadow=0;fillColor=#d5e8d4;strokeColor=#82b366;" vertex="1" parent="1">
          <mxGeometry x="1386.75" y="510" width="210" height="60" as="geometry" />
        </mxCell>
        <mxCell id="IyQjWxYwGwcPTdUjTPlc-259" value="btn" style="rounded=0;whiteSpace=wrap;html=1;strokeWidth=3;fontFamily=Helvetica;fontSize=31;glass=0;shadow=0;fillColor=#d5e8d4;strokeColor=#82b366;" vertex="1" parent="1">
          <mxGeometry x="1609.75" y="510" width="210" height="60" as="geometry" />
        </mxCell>
        <mxCell id="IyQjWxYwGwcPTdUjTPlc-260" value="btn" style="rounded=0;whiteSpace=wrap;html=1;strokeWidth=3;fontFamily=Helvetica;fontSize=31;glass=0;shadow=1;fillColor=#d5e8d4;strokeColor=#82b366;" vertex="1" parent="1">
          <mxGeometry x="1796.12" y="500" width="87.75" height="60" as="geometry" />
        </mxCell>
        <mxCell id="IyQjWxYwGwcPTdUjTPlc-261" value="btn" style="rounded=0;whiteSpace=wrap;html=1;strokeWidth=3;fontFamily=Helvetica;fontSize=31;glass=0;shadow=1;fillColor=#d5e8d4;strokeColor=#82b366;" vertex="1" parent="1">
          <mxGeometry x="-10.25" y="500" width="87.75" height="60" as="geometry" />
        </mxCell>
        <mxCell id="IyQjWxYwGwcPTdUjTPlc-264" value="&lt;p style=&quot;line-height: 0%; font-size: 31px;&quot;&gt;main&lt;/p&gt;" style="strokeWidth=5;shadow=0;dashed=0;align=center;html=1;shape=mxgraph.mockup.text.callout;linkText=;textSize=17;textColor=#666666;callDir=NW;callStyle=line;fontSize=31;fontColor=#333333;align=left;verticalAlign=top;strokeColor=#787878;rounded=0;fontFamily=Helvetica;fillColor=#f5f5f5;" vertex="1" parent="1">
          <mxGeometry x="-200" y="890" width="200" height="100" as="geometry" />
        </mxCell>
        <mxCell id="IyQjWxYwGwcPTdUjTPlc-266" value="" style="rounded=0;whiteSpace=wrap;html=1;strokeWidth=3;fontFamily=Helvetica;fontSize=31;glass=0;shadow=0;fillColor=#f5f5f5;strokeColor=#666666;fontColor=#333333;" vertex="1" parent="1">
          <mxGeometry x="40" y="758" width="1840" height="550" as="geometry" />
        </mxCell>
        <mxCell id="IyQjWxYwGwcPTdUjTPlc-267" value="a" style="rounded=0;whiteSpace=wrap;html=1;strokeWidth=3;fontFamily=Helvetica;fontSize=31;glass=0;shadow=0;fillColor=#fff2cc;strokeColor=#d6b656;" vertex="1" parent="1">
          <mxGeometry x="56.129999999999995" y="868" width="350" height="400" as="geometry" />
        </mxCell>
        <mxCell id="IyQjWxYwGwcPTdUjTPlc-272" value="a" style="rounded=0;whiteSpace=wrap;html=1;strokeWidth=3;fontFamily=Helvetica;fontSize=31;glass=0;shadow=0;fillColor=#fff2cc;strokeColor=#d6b656;" vertex="1" parent="1">
          <mxGeometry x="1516.13" y="868" width="350" height="400" as="geometry" />
        </mxCell>
        <mxCell id="IyQjWxYwGwcPTdUjTPlc-273" value="a" style="rounded=0;whiteSpace=wrap;html=1;strokeWidth=3;fontFamily=Helvetica;fontSize=31;glass=0;shadow=0;fillColor=#fff2cc;strokeColor=#d6b656;" vertex="1" parent="1">
          <mxGeometry x="786.13" y="868" width="350" height="400" as="geometry" />
        </mxCell>
        <mxCell id="IyQjWxYwGwcPTdUjTPlc-274" value="a" style="rounded=0;whiteSpace=wrap;html=1;strokeWidth=3;fontFamily=Helvetica;fontSize=31;glass=0;shadow=0;fillColor=#fff2cc;strokeColor=#d6b656;" vertex="1" parent="1">
          <mxGeometry x="1151.13" y="868" width="350" height="400" as="geometry" />
        </mxCell>
        <mxCell id="IyQjWxYwGwcPTdUjTPlc-275" value="a" style="rounded=0;whiteSpace=wrap;html=1;strokeWidth=3;fontFamily=Helvetica;fontSize=31;glass=0;shadow=0;fillColor=#fff2cc;strokeColor=#d6b656;" vertex="1" parent="1">
          <mxGeometry x="421.13" y="868" width="350" height="400" as="geometry" />
        </mxCell>
        <mxCell id="IyQjWxYwGwcPTdUjTPlc-276" value="" style="rounded=0;whiteSpace=wrap;html=1;strokeWidth=3;fontFamily=Helvetica;fontSize=31;glass=0;shadow=0;fillColor=#dae8fc;strokeColor=#6c8ebf;" vertex="1" parent="1">
          <mxGeometry x="40" y="1330" width="1840" height="1220" as="geometry" />
        </mxCell>
        <mxCell id="IyQjWxYwGwcPTdUjTPlc-277" value="" style="rounded=0;whiteSpace=wrap;html=1;strokeWidth=3;fontFamily=Helvetica;fontSize=31;glass=0;shadow=0;fillColor=#f5f5f5;strokeColor=#666666;fontColor=#333333;" vertex="1" parent="1">
          <mxGeometry x="20" y="660" width="1880" height="70" as="geometry" />
        </mxCell>
        <mxCell id="IyQjWxYwGwcPTdUjTPlc-278" value="a" style="rounded=0;whiteSpace=wrap;html=1;strokeWidth=3;fontFamily=Helvetica;fontSize=31;glass=0;shadow=0;fillColor=#fff2cc;strokeColor=#d6b656;" vertex="1" parent="1">
          <mxGeometry x="30" y="670" width="285.25" height="50" as="geometry" />
        </mxCell>
        <mxCell id="IyQjWxYwGwcPTdUjTPlc-279" value="h3" style="rounded=0;whiteSpace=wrap;html=1;strokeWidth=3;fontFamily=Helvetica;fontSize=31;glass=0;shadow=0;" vertex="1" parent="1">
          <mxGeometry x="60" y="788" width="1790" height="60" as="geometry" />
        </mxCell>
        <mxCell id="IyQjWxYwGwcPTdUjTPlc-284" value="&lt;b&gt;&lt;font style=&quot;font-size: 40px;&quot;&gt;. . .&lt;/font&gt;&lt;/b&gt;" style="text;html=1;strokeColor=none;fillColor=none;align=center;verticalAlign=middle;whiteSpace=wrap;rounded=0;fontSize=30;fontFamily=Helvetica;fontColor=default;" vertex="1" parent="1">
          <mxGeometry x="931.13" y="2431" width="60" height="30" as="geometry" />
        </mxCell>
        <mxCell id="IyQjWxYwGwcPTdUjTPlc-286" value="a" style="rounded=0;whiteSpace=wrap;html=1;strokeWidth=3;fontFamily=Helvetica;fontSize=31;glass=0;shadow=0;fillColor=#fff2cc;strokeColor=#d6b656;" vertex="1" parent="1">
          <mxGeometry x="60.5" y="1360" width="430" height="480" as="geometry" />
        </mxCell>
        <mxCell id="IyQjWxYwGwcPTdUjTPlc-289" value="a" style="rounded=0;whiteSpace=wrap;html=1;strokeWidth=3;fontFamily=Helvetica;fontSize=31;glass=0;shadow=0;fillColor=#fff2cc;strokeColor=#d6b656;" vertex="1" parent="1">
          <mxGeometry x="1431.75" y="1360" width="430" height="480" as="geometry" />
        </mxCell>
        <mxCell id="IyQjWxYwGwcPTdUjTPlc-290" value="a" style="rounded=0;whiteSpace=wrap;html=1;strokeWidth=3;fontFamily=Helvetica;fontSize=31;glass=0;shadow=0;fillColor=#fff2cc;strokeColor=#d6b656;" vertex="1" parent="1">
          <mxGeometry x="516.5" y="1360" width="430" height="480" as="geometry" />
        </mxCell>
        <mxCell id="IyQjWxYwGwcPTdUjTPlc-291" value="a" style="rounded=0;whiteSpace=wrap;html=1;strokeWidth=3;fontFamily=Helvetica;fontSize=31;glass=0;shadow=0;fillColor=#fff2cc;strokeColor=#d6b656;" vertex="1" parent="1">
          <mxGeometry x="971.5" y="1360" width="430" height="480" as="geometry" />
        </mxCell>
        <mxCell id="IyQjWxYwGwcPTdUjTPlc-292" value="a" style="rounded=0;whiteSpace=wrap;html=1;strokeWidth=3;fontFamily=Helvetica;fontSize=31;glass=0;shadow=0;fillColor=#fff2cc;strokeColor=#d6b656;" vertex="1" parent="1">
          <mxGeometry x="64.88" y="1880" width="430" height="480" as="geometry" />
        </mxCell>
        <mxCell id="IyQjWxYwGwcPTdUjTPlc-293" value="a" style="rounded=0;whiteSpace=wrap;html=1;strokeWidth=3;fontFamily=Helvetica;fontSize=31;glass=0;shadow=0;fillColor=#fff2cc;strokeColor=#d6b656;" vertex="1" parent="1">
          <mxGeometry x="1436.13" y="1880" width="430" height="480" as="geometry" />
        </mxCell>
        <mxCell id="IyQjWxYwGwcPTdUjTPlc-294" value="a" style="rounded=0;whiteSpace=wrap;html=1;strokeWidth=3;fontFamily=Helvetica;fontSize=31;glass=0;shadow=0;fillColor=#fff2cc;strokeColor=#d6b656;" vertex="1" parent="1">
          <mxGeometry x="520.88" y="1880" width="430" height="480" as="geometry" />
        </mxCell>
        <mxCell id="IyQjWxYwGwcPTdUjTPlc-295" value="a" style="rounded=0;whiteSpace=wrap;html=1;strokeWidth=3;fontFamily=Helvetica;fontSize=31;glass=0;shadow=0;fillColor=#fff2cc;strokeColor=#d6b656;" vertex="1" parent="1">
          <mxGeometry x="975.88" y="1880" width="430" height="480" as="geometry" />
        </mxCell>
        <mxCell id="IyQjWxYwGwcPTdUjTPlc-298" value="btn" style="rounded=0;whiteSpace=wrap;html=1;strokeWidth=3;fontFamily=Helvetica;fontSize=31;glass=0;shadow=0;fillColor=#d5e8d4;strokeColor=#82b366;" vertex="1" parent="1">
          <mxGeometry x="1660" y="370" width="210" height="60" as="geometry" />
        </mxCell>
        <mxCell id="IyQjWxYwGwcPTdUjTPlc-299" value="" style="rounded=0;whiteSpace=wrap;html=1;strokeWidth=3;fontFamily=Helvetica;fontSize=31;glass=0;shadow=0;fillColor=#f5f5f5;strokeColor=#666666;fontColor=#333333;" vertex="1" parent="1">
          <mxGeometry x="20" y="340" width="1580" height="120" as="geometry" />
        </mxCell>
        <mxCell id="IyQjWxYwGwcPTdUjTPlc-300" value="btn" style="rounded=0;whiteSpace=wrap;html=1;strokeWidth=3;fontFamily=Helvetica;fontSize=31;glass=0;shadow=0;fillColor=#d5e8d4;strokeColor=#82b366;" vertex="1" parent="1">
          <mxGeometry x="44.75" y="370" width="210" height="60" as="geometry" />
        </mxCell>
        <mxCell id="IyQjWxYwGwcPTdUjTPlc-301" value="btn" style="rounded=0;whiteSpace=wrap;html=1;strokeWidth=3;fontFamily=Helvetica;fontSize=31;glass=0;shadow=0;fillColor=#d5e8d4;strokeColor=#82b366;" vertex="1" parent="1">
          <mxGeometry x="267.25" y="370" width="210" height="60" as="geometry" />
        </mxCell>
        <mxCell id="IyQjWxYwGwcPTdUjTPlc-302" value="btn" style="rounded=0;whiteSpace=wrap;html=1;strokeWidth=3;fontFamily=Helvetica;fontSize=31;glass=0;shadow=0;fillColor=#d5e8d4;strokeColor=#82b366;" vertex="1" parent="1">
          <mxGeometry x="490.5" y="370" width="210" height="60" as="geometry" />
        </mxCell>
      </root>
    </mxGraphModel>
  </diagram>
</mxfile>
